<svg width="36" height="36" viewBox="0 0 36 36" fill="none" xmlns="http://www.w3.org/2000/svg">
<mask id="path-1-inside-1_6056_3205" fill="white">
<path d="M0 18C0 8.05888 8.05888 0 18 0C27.9411 0 36 8.05888 36 18C36 27.9411 27.9411 36 18 36C8.05888 36 0 27.9411 0 18Z"/>
</mask>
<path d="M0 18C0 8.05888 8.05888 0 18 0C27.9411 0 36 8.05888 36 18C36 27.9411 27.9411 36 18 36C8.05888 36 0 27.9411 0 18Z" fill="#E7F3EC"/>
<path d="M0 18M36 18M36 18M0 18M18 0M36 18M18 36M0 18M18 36V35.5C8.33502 35.5 0.5 27.665 0.5 18H0H-0.5C-0.5 28.2173 7.78273 36.5 18 36.5V36ZM36 18H35.5C35.5 27.665 27.665 35.5 18 35.5V36V36.5C28.2173 36.5 36.5 28.2173 36.5 18H36ZM18 0V0.5C27.665 0.5 35.5 8.33502 35.5 18H36H36.5C36.5 7.78273 28.2173 -0.5 18 -0.5V0ZM18 0V-0.5C7.78273 -0.5 -0.5 7.78273 -0.5 18H0H0.5C0.5 8.33502 8.33502 0.5 18 0.5V0Z" fill="#6EB489" mask="url(#path-1-inside-1_6056_3205)"/>
<path d="M16.7418 9.8583L12.5835 11.425C11.6251 11.7833 10.8418 12.9166 10.8418 13.9333V20.125C10.8418 21.1083 11.4918 22.4 12.2835 22.9916L15.8668 25.6666C17.0418 26.55 18.9751 26.55 20.1501 25.6666L23.7335 22.9916C24.5251 22.4 25.1751 21.1083 25.1751 20.125V13.9333C25.1751 12.9083 24.3918 11.775 23.4335 11.4166L19.2751 9.8583C18.5668 9.59997 17.4335 9.59997 16.7418 9.8583Z" stroke="#6EB489" stroke-width="1.5" stroke-linecap="round" stroke-linejoin="round"/>
</svg>
